# xmcd
# 
# Track frame offsets:
#     150
#     20153
#     33968
#     48558
#     64468
#     80078
#     101170
#     116410
#     133588
#     150518
# 
# Disc length: 2250
# 
# Revision: 42
# Processed by: cddbd v1.5.2PL0 Copyright (c) Steve Scherf et al.
# Submitted via: fre:ac v1.0.17
# 
DISCID=8808c80a
DTITLE=Aerosmith - Greatest Hits
DYEAR=1986
DGENRE=Classic Rock
TTITLE0=Dream On
TTITLE1=Same Old Song And Dance
TTITLE2=Sweet Emotion
TTITLE3=Walk This Way
TTITLE4=Last Child
TTITLE5=Back In The Saddle
TTITLE6=Draw The Line
TTITLE7=Kings And Queens
TTITLE8=Come Together
TTITLE9=Remember (Walking In The Sand)
EXTD=YEAR: 1980
EXTT0=
EXTT1=
EXTT2=
EXTT3=
EXTT4=
EXTT5=
EXTT6=
EXTT7=
EXTT8=
EXTT9=
PLAYORDER=
